<svg width="90" height="28" viewBox="0 0 90 28" fill="none" xmlns="http://www.w3.org/2000/svg">
<path fill-rule="evenodd" clip-rule="evenodd" d="M-0.000366211 0.968506V21.4529C-0.000366211 21.7237 0.0903969 21.9503 0.271926 22.1326C0.453455 22.3149 0.679066 22.406 0.948766 22.406H4.4341C4.7038 22.406 4.92942 22.3149 5.11094 22.1326C5.29247 21.9503 5.38324 21.7237 5.38324 21.4529V12.0558C6.86659 10.5662 8.25656 9.23413 9.55319 9.23413C11.5345 9.23413 12.5251 9.99454 12.5251 12.4841V21.4529C12.5251 21.7237 12.6158 21.9503 12.7974 22.1326C12.9789 22.3149 13.2045 22.406 13.4742 22.406H16.944C17.2241 22.406 17.4548 22.3149 17.6364 22.1326C17.8179 21.9503 17.9087 21.7237 17.9087 21.4529V12.4841C17.9087 9.94245 17.2759 8.05445 16.0104 6.82007C14.7449 5.58569 13.1034 4.96851 11.0858 4.96851C9.06824 4.96851 7.16741 5.72371 5.38324 7.23413V0.968506C5.38324 0.687254 5.29247 0.455486 5.11094 0.273193C4.92942 0.0909008 4.7038 -0.000244141 4.4341 -0.000244141H0.948766C0.679066 -0.000244141 0.453455 0.0909008 0.271926 0.273193C0.0903969 0.455486 -0.000366211 0.687254 -0.000366211 0.968506ZM20.9087 13.8669C20.9087 16.7263 21.7074 18.9164 23.3048 20.4373C24.9023 21.9581 27.1325 22.7186 29.9954 22.7186C35.1444 22.728 37.641 21.6326 38.1175 19.1716C38.1661 18.9206 37.8273 18.1261 36.3251 17.9154C34.8229 17.7047 33.849 17.6091 33.3407 18.2341C32.8325 18.8591 31.8885 19.1716 30.5089 19.1716C29.1293 19.1716 28.1257 18.88 27.4981 18.2966C26.8706 17.7133 26.5049 16.781 26.4012 15.4998H38.1175C38.3976 15.4998 38.6284 15.4086 38.8099 15.2263C38.9915 15.044 39.0822 14.8123 39.0822 14.531V13.6404C39.0822 10.8487 38.2835 8.70549 36.6861 7.21069C35.0886 5.71589 32.8636 4.96851 30.011 4.96851C27.1584 4.96851 24.9282 5.73673 23.3204 7.27319C21.7126 8.80966 20.9087 11.0076 20.9087 13.8669ZM33.6053 12.2029H26.3701C26.4945 9.74454 27.7056 8.51538 30.0032 8.51538C32.3009 8.51538 33.5015 9.74454 33.6053 12.2029ZM86 14C88.2091 14 90 12.2091 90 9.99999C90 7.79085 88.2091 5.99999 86 5.99999C83.7908 5.99999 82 7.79085 82 9.99999C82 12.2091 83.7908 14 86 14ZM45.7761 24.0312L47.8144 24.2969C49.0525 24.2969 49.9747 23.5243 50.581 21.9793C50.5919 21.9514 50.5033 21.937 50.3389 21.9102C49.7121 21.8082 47.9841 21.5271 46.4763 19.6383C44.7481 17.4732 44.4913 16.6374 43.8217 14.4584C43.7539 14.2379 43.6819 14.0035 43.6038 13.7527L41.2854 6.20579C41.2543 6.12246 41.2387 6.02611 41.2387 5.91673C41.2387 5.80736 41.3035 5.67454 41.4332 5.51829C41.5629 5.36204 41.7574 5.27871 42.0167 5.26829L45.076 5.28124C45.3768 5.28124 45.6646 5.3828 45.9395 5.58593C46.2144 5.78905 46.3933 6.04166 46.4763 6.34374L48.5146 12.9687C49.0229 14.5938 49.539 15.7187 50.0628 16.3437C50.5866 16.9687 51.2064 17.2812 51.9222 17.2812L55.0185 6.34374C55.1015 6.04166 55.2649 5.78905 55.5086 5.58593C55.7524 5.3828 56.0247 5.28124 56.3255 5.28124H59.6086C59.8679 5.28124 60.0598 5.36457 60.1843 5.53124C60.3088 5.69791 60.371 5.83593 60.371 5.9453C60.371 6.05468 60.3606 6.14582 60.3399 6.21874L56.2633 20.8125C55.5372 23.3958 54.6373 25.2396 53.5637 26.3437C52.4901 27.4479 51.1079 28 49.4171 28L48.7672 27.9967C47.4163 27.9822 46.4374 27.9208 45.8306 27.8125C45.1304 27.6875 44.6922 27.5338 44.5158 27.3516C44.3395 27.1693 44.2513 26.9583 44.2513 26.7187V25C44.2513 24.7187 44.3395 24.487 44.5158 24.3047C44.6922 24.1224 44.9204 24.0312 45.2004 24.0312H45.7761ZM62.1448 21.2812C60.7755 20.3229 60.0909 18.9687 60.0909 17.2187C60.0909 15.4687 60.7781 14.125 62.1526 13.1875C63.527 12.25 65.2982 11.7812 67.4661 11.7812H72.6164C72.6164 10.5625 72.3622 9.71354 71.8539 9.23437C71.3457 8.7552 70.4562 8.51562 69.1855 8.51562C67.9995 8.51562 67.1433 8.7901 66.617 9.33909L66.5092 9.46093C65.9958 10.0911 64.3794 9.87687 62.9365 9.59891C61.4935 9.32094 61.4001 8.58479 61.5288 8.2017C62.2533 6.04638 65.0155 4.96874 69.8156 4.96874C72.2844 4.96874 74.2657 5.52342 75.7594 6.6328C77.2531 7.74218 78 9.45831 78 11.7812V21.4531C78 21.7344 77.9118 21.9635 77.7355 22.1406C77.5591 22.3177 77.3309 22.4062 77.0508 22.4062H74.0478C73.7678 22.4062 73.5396 22.3151 73.3632 22.1328C73.1869 21.9505 73.0987 21.7239 73.0987 21.4531V20.9687C71.4598 22.1458 69.5693 22.7318 67.4273 22.7266C65.2852 22.7213 63.5244 22.2396 62.1448 21.2812ZM67.8396 15.3281H72.6164V17.7656C71.133 18.7031 69.5926 19.1719 67.9952 19.1719C67.1964 19.1719 66.5793 18.9896 66.1436 18.625C65.7079 18.2604 65.4901 17.7969 65.4901 17.2344C65.4901 16.6719 65.7001 16.2135 66.1203 15.8594C66.5404 15.5052 67.1135 15.3281 67.8396 15.3281Z" fill="#1B1B1B"/>
</svg>
